<svg xmlns="http://www.w3.org/2000/svg" viewBox="0 0 360 360" role="img" aria-labelledby="title desc">
  <title id="title">Boyd Monson monogram</title>
  <desc id="desc">A rounded-square monogram with the letters B and M.</desc>
  <defs>
    <linearGradient id="bg" x1="0%" y1="0%" x2="100%" y2="100%">
      <stop offset="0%" stop-color="#17332d" />
      <stop offset="100%" stop-color="#315447" />
    </linearGradient>
  </defs>
  <rect width="360" height="360" rx="72" fill="url(#bg)" />
  <circle cx="284" cy="76" r="46" fill="#bb6b46" opacity="0.86" />
  <path d="M108 84h72c49 0 81 26 81 67 0 27-15 46-41 55 33 8 52 29 52 61 0 46-34 73-89 73H108V84zm44 42v62h24c26 0 41-11 41-31s-15-31-41-31h-24zm0 100v72h31c30 0 46-12 46-36 0-24-16-36-46-36h-31z" fill="#f8f3ec" />
  <path d="M236 276V150l-44 70h-18l-44-70v126h-22V118h24l51 82 51-82h24v158h-22z" fill="#f3d8c8" opacity="0.95" />
</svg>
